# xmcd
#
# Track frame offsets:
#	187
#	15530
#	27272
#	37135
#	47902
#	58540
#	78852
#	89452
#	103937
#	117062
#	129000
#	139360
#	154320
#	165925
#	185642
#	202165
#	218685
#	230692
#
# Disc length: 3271 seconds
#
# Revision: 1
# Processed by: cddbd v1.5.1PL0 Copyright (c) Steve Scherf et al.
# Submitted via: CDex 1.50Beta5
#
DISCID=f70cc512
DTITLE=ニーノロータ - 不滅の映画音楽
DYEAR=1900
DGENRE=
TTITLE0=太陽がいっぱい
TTITLE1=いそしぎ
TTITLE2=ムーン・リヴァー
TTITLE3=チム・チム・チェリー
TTITLE4=トゥナイト
TTITLE5=シェルブールの雨傘
TTITLE6=男と女
TTITLE7=ロミオとジュリエット
TTITLE8=ある愛の詩
TTITLE9=黒いオルフェ
TTITLE10=雨にぬれても
TTITLE11=アラビアのロレンス
TTITLE12=007/ロシアより愛をこめて
TTITLE13=ゴッドファーザー
TTITLE14=風のささやき
TTITLE15=卒業
TTITLE16=追憶
TTITLE17=ドレミの歌
EXTD=
EXTT0=
EXTT1=
EXTT2=
EXTT3=
EXTT4=
EXTT5=
EXTT6=
EXTT7=
EXTT8=
EXTT9=
EXTT10=
EXTT11=
EXTT12=
EXTT13=
EXTT14=
EXTT15=
EXTT16=
EXTT17=
PLAYORDER=
